#!OML:ASF E:\Style6\Style6.ASF
:FULLY-SPECIFIED
:DEGREES
3038
root -0.0369853 18.3218 0.647285 17.6038 4.07332 -0.930773
lowerback 9.64188 0.503633 3.76749
upperback -0.768878 1.2862 2.79744
thorax -6.21174 0.554826 0.622507
lowerneck 0.190215 -2.44231 3.17288
upperneck -25.5583 -5.26283 -9.10125
head -8.22702 -2.01461 -3.24
rclavicle 4.77083e-015 -1.59028e-014
rhumerus 76.5069 -38.1628 -37.0817
rradius 57.9866
rwrist -21.614
rhand -17.3882 9.09421
rfingers 7.12502
rthumb 8.86074 -20.6998
lclavicle 4.77083e-015 -1.59028e-014
lhumerus 31.8668 -1.57938 -23.1255
lradius 109.942
lwrist 48.5522
lhand -3.6109 16.2145
lfingers 7.12502
lthumb 22.1276 44.9682
rfemur -23.632 12.6808 17.8719
rtibia 16.5141
rfoot -16.8602 -26.5983
rtoes 25.2667
lfemur -22.7332 -10.3377 -11.8414
ltibia 16.3162
lfoot -2.14452 12.5286
ltoes -22.2442
3039
root -0.0327255 18.3228 0.647961 17.6207 3.91318 -0.926334
lowerback 9.63149 0.566384 3.8557
upperback -0.821269 1.37796 2.73688
thorax -6.25639 0.594712 0.49613
lowerneck 0.157354 -2.4731 3.09734
upperneck -25.4898 -5.27195 -8.95334
head -8.1932 -2.02714 -3.17458
rclavicle -1.31198e-014 -1.74931e-014
rhumerus 77.198 -38.0569 -37.8708
rradius 57.4029
rwrist -21.4454
rhand -17.5281 9.07632
rfingers 7.12502
rthumb 8.72576 -20.7233
lclavicle -1.31198e-014 -1.74931e-014
lhumerus 31.6902 -1.38545 -23.1452
lradius 110.423
lwrist 49.0405
lhand -3.60709 16.442
lfingers 7.12502
lthumb 22.1312 45.1953
rfemur -23.6439 12.7261 17.8391
rtibia 16.4478
rfoot -16.5307 -26.75
rtoes 24.4165
lfemur -22.7089 -10.3215 -11.8748
ltibia 16.3163
lfoot -2.07572 12.5773
ltoes -22.502
3040
root -0.0285092 18.3231 0.649434 17.6234 3.75431 -0.8515
lowerback 9.61825 0.619568 3.85656
upperback -0.834638 1.44458 2.67407
thorax -6.25995 0.626002 0.420024
lowerneck 0.0378318 -2.46098 3.05821
upperneck -25.4668 -5.23609 -8.87046
head -8.15831 -2.01712 -3.14321
rclavicle 1.59028e-015 7.95139e-016
rhumerus 78.0602 -37.9343 -38.8387
rradius 56.8082
rwrist -21.1025
rhand -17.6756 9.11041
rfingers 7.12502
rthumb 8.58341 -20.6951
lclavicle 1.59028e-015 7.95139e-016
lhumerus 31.4199 -1.166 -23.1649
lradius 110.971
lwrist 49.5818
lhand -3.38344 16.5435
lfingers 7.12502
lthumb 22.3459 45.2713
rfemur -23.61 12.7495 17.7421
rtibia 16.3699
rfoot -16.4819 -26.7821
rtoes 24.4208
lfemur -22.6706 -10.3181 -11.9909
ltibia 16.3268
lfoot -1.99599 12.6131
ltoes -23.0257
3041
root -0.024104 18.3224 0.651803 17.6358 3.60544 -0.748196
lowerback 9.5853 0.674498 3.83433
upperback -0.849717 1.50974 2.61109
thorax -6.25453 0.657499 0.357183
lowerneck -0.059137 -2.47246 3.07026
upperneck -25.484 -5.24927 -8.85695
head -8.14756 -2.02779 -3.14135
rclavicle 1.31198e-014 1.59028e-015
rhumerus 78.9153 -37.6941 -39.7404
rradius 56.1419
rwrist -20.7933
rhand -18.114 8.9343
rfingers 7.12502
rthumb 8.16036 -20.8881
lclavicle 1.31198e-014 1.59028e-015
lhumerus 31.1868 -0.988837 -23.1735
lradius 111.49
lwrist 50.0053
lhand -3.11381 16.4994
lfingers 7.12502
lthumb 22.6047 45.1958
rfemur -23.6134 12.8467 17.5812
rtibia 16.3515
rfoot -16.7659 -26.6981
rtoes 25.3472
lfemur -22.6065 -10.2998 -12.1471
ltibia 16.2785
lfoot -1.92054 12.6584
ltoes -23.6244
3042
root -0.0207882 18.3244 0.653757 17.5944 3.50208 -0.748027
lowerback 9.61287 0.720575 3.9314
upperback -0.874529 1.58251 2.56983
thorax -6.29136 0.688287 0.248418
lowerneck -0.090238 -2.50005 3.1645
upperneck -25.5035 -5.30212 -8.94339
head -8.15646 -2.0546 -3.18427
rclavicle 5.1684e-015 1.11319e-014
rhumerus 79.7159 -37.278 -40.601
rradius 55.3984
rwrist -20.5072
rhand -18.8724 8.73007
rfingers 7.12502
rthumb 7.42828 -21.1195
lclavicle 5.1684e-015 1.11319e-014
lhumerus 31.1062 -0.875857 -23.2114
lradius 111.937
lwrist 50.3538
lhand -2.75713 16.3621
lfingers 7.12502
lthumb 22.947 45.0164
rfemur -23.5574 12.9168 17.5729
rtibia 16.335
rfoot -16.9447 -26.6778
rtoes 25.8522
lfemur -22.495 -10.2754 -12.1834
ltibia 16.2381
lfoot -1.88029 12.6671
ltoes -23.8992
3043
root -0.0177901 18.3265 0.655896 17.5789 3.41618 -0.746541
lowerback 9.60852 0.763476 4.03161
upperback -0.928998 1.65231 2.54882
thorax -6.34183 0.717383 0.159937
lowerneck -0.025337 -2.51562 3.21752
upperneck -25.5432 -5.34373 -9.036
head -8.18818 -2.06851 -3.22209
rclavicle 5.96354e-015 1.59028e-014
rhumerus 80.482 -36.8821 -41.429
rradius 54.7402
rwrist -20.2788
rhand -19.489 8.72694
rfingers 7.12502
rthumb 6.83313 -21.1428
lclavicle 5.96354e-015 1.59028e-014
lhumerus 30.9911 -0.863694 -23.237
lradius 112.492
lwrist 50.7714
lhand -2.48011 16.297
lfingers 7.12502
lthumb 23.2128 44.9181
rfemur -23.5072 12.9447 17.5696
rtibia 16.2709
rfoot -16.721 -26.8087
rtoes 25.2394
lfemur -22.4371 -10.2374 -12.2122
ltibia 16.2543
lfoot -1.87923 12.6404
ltoes -23.9828
3044
root -0.0150013 18.3254 0.657639 17.5855 3.34686 -0.783603
lowerback 9.60253 0.790212 4.14599
upperback -0.999145 1.70407 2.5441
thorax -6.40844 0.736935 0.0832557
lowerneck -0.00365996 -2.524 3.23847
upperneck -25.5409 -5.35118 -9.02775
head -8.19215 -2.07422 -3.22202
rclavicle -7.55382e-015 -3.97569e-015
rhumerus 81.5047 -36.4476 -42.6272
rradius 54.0764
rwrist -19.7946
rhand -20.0159 8.71528
rfingers 7.12502
rthumb 6.32449 -21.1703
lclavicle -7.55382e-015 -3.97569e-015
lhumerus 30.8167 -0.958411 -23.3225
lradius 113.159
lwrist 51.1868
lhand -2.39037 16.3701
lfingers 7.12502
lthumb 23.2989 44.9803
rfemur -23.4989 13.0549 17.5686
rtibia 16.2321
rfoot -16.9993 -26.742
rtoes 25.9913
lfemur -22.417 -10.1863 -12.1905
ltibia 16.2676
lfoot -1.89053 12.5852
ltoes -24.0892
3045
root -0.0117944 18.3241 0.658549 17.5888 3.30641 -0.821118
lowerback 9.61881 0.795619 4.28441
upperback -1.05362 1.73136 2.54516
thorax -6.47124 0.743792 0.00247638
lowerneck -0.038851 -2.52342 3.20297
upperneck -25.5061 -5.34038 -8.9858
head -8.17127 -2.07126 -3.20205
rclavicle -2.38542e-015 -5.48646e-014
rhumerus 82.7085 -35.929 -44.0544
rradius 53.4238
rwrist -19.1379
rhand -20.5231 8.65219
rfingers 7.12502
rthumb 5.83477 -21.2475
lclavicle -2.38542e-015 -5.48646e-014
lhumerus 30.6437 -1.11234 -23.4869
lradius 113.846
lwrist 51.5731
lhand -2.52791 16.3101
lfingers 7.12502
lthumb 23.167 44.937
rfemur -23.5141 13.1768 17.5609
rtibia 16.242
rfoot -17.55 -26.5835
rtoes 27.4354
lfemur -22.4088 -10.1842 -12.1511
ltibia 16.259
lfoot -1.9314 12.6055
ltoes -23.7924
3046
root -0.00997006 18.3243 0.658366 17.5931 3.2545 -0.73807
lowerback 9.6203 0.818462 4.28499
upperback -1.08281 1.762 2.52389
thorax -6.50144 0.75755 -0.0248419
lowerneck -0.0938168 -2.53477 3.093
upperneck -25.4849 -5.34523 -8.90883
head -8.15026 -2.07188 -3.15658
rclavicle -1.86858e-014 1.11319e-014
rhumerus 83.7479 -35.4587 -45.2737
rradius 52.8122
rwrist -18.6201
rhand -21.2013 8.50954
rfingers 7.12502
rthumb 5.17998 -21.4072
lclavicle -1.86858e-014 1.11319e-014
lhumerus 30.5211 -1.2757 -23.6762
lradius 114.527
lwrist 51.927
lhand -2.67544 16.1692
lfingers 7.12502
lthumb 23.0254 44.8138
rfemur -23.5495 13.2532 17.4409
rtibia 16.2853
rfoot -17.5782 -26.6906
rtoes 27.4207
lfemur -22.3943 -10.207 -12.2439
ltibia 16.2348
lfoot -1.92755 12.6321
ltoes -23.8042
